<svg xmlns="http://www.w3.org/2000/svg" xmlns:xlink="http://www.w3.org/1999/xlink" width="500" zoomAndPan="magnify" viewBox="0 0 375 374.999991" height="500" preserveAspectRatio="xMidYMid meet" version="1.0"><defs><g/><clipPath id="a5f25e10cc"><path d="M 49 121 L 93 121 L 93 156 L 49 156 Z M 49 121 " clip-rule="nonzero"/></clipPath><clipPath id="7ccafec078"><path d="M 17.441406 109.488281 L 96.503906 122.148438 L 83.0625 206.09375 L 4 193.433594 Z M 17.441406 109.488281 " clip-rule="nonzero"/></clipPath><clipPath id="7f3095e90e"><path d="M 17.441406 109.488281 L 96.503906 122.148438 L 83.0625 206.09375 L 4 193.433594 Z M 17.441406 109.488281 " clip-rule="nonzero"/></clipPath><clipPath id="664352e9fd"><path d="M 7 160 L 52 160 L 52 194 L 7 194 Z M 7 160 " clip-rule="nonzero"/></clipPath><clipPath id="fce586cf04"><path d="M 17.441406 109.488281 L 96.503906 122.148438 L 83.0625 206.09375 L 4 193.433594 Z M 17.441406 109.488281 " clip-rule="nonzero"/></clipPath><clipPath id="64dbeabb07"><path d="M 17.441406 109.488281 L 96.503906 122.148438 L 83.0625 206.09375 L 4 193.433594 Z M 17.441406 109.488281 " clip-rule="nonzero"/></clipPath><clipPath id="1440605c69"><path d="M 35 135 L 67 135 L 67 177 L 35 177 Z M 35 135 " clip-rule="nonzero"/></clipPath><clipPath id="7968159d19"><path d="M 17.441406 109.488281 L 96.503906 122.148438 L 83.0625 206.09375 L 4 193.433594 Z M 17.441406 109.488281 " clip-rule="nonzero"/></clipPath><clipPath id="c52799d39c"><path d="M 17.441406 109.488281 L 96.503906 122.148438 L 83.0625 206.09375 L 4 193.433594 Z M 17.441406 109.488281 " clip-rule="nonzero"/></clipPath><clipPath id="2ee3267ab2"><path d="M 52 158 L 64 158 L 64 181 L 52 181 Z M 52 158 " clip-rule="nonzero"/></clipPath><clipPath id="e425ad2585"><path d="M 17.441406 109.488281 L 96.503906 122.148438 L 83.0625 206.09375 L 4 193.433594 Z M 17.441406 109.488281 " clip-rule="nonzero"/></clipPath><clipPath id="81b1c4ce30"><path d="M 17.441406 109.488281 L 96.503906 122.148438 L 83.0625 206.09375 L 4 193.433594 Z M 17.441406 109.488281 " clip-rule="nonzero"/></clipPath><clipPath id="9c01806783"><path d="M 120 176 L 149 176 L 149 223 L 120 223 Z M 120 176 " clip-rule="nonzero"/></clipPath><clipPath id="4b089b9e52"><path d="M 179.554688 159.175781 L 141.429688 229.585938 L 66.671875 189.109375 L 104.800781 118.699219 Z M 179.554688 159.175781 " clip-rule="nonzero"/></clipPath><clipPath id="9e42089785"><path d="M 179.554688 159.175781 L 141.429688 229.585938 L 66.671875 189.109375 L 104.800781 118.699219 Z M 179.554688 159.175781 " clip-rule="nonzero"/></clipPath><clipPath id="08874461fa"><path d="M 98 125 L 126 125 L 126 172 L 98 172 Z M 98 125 " clip-rule="nonzero"/></clipPath><clipPath id="91cb101050"><path d="M 179.554688 159.175781 L 141.429688 229.585938 L 66.671875 189.109375 L 104.800781 118.699219 Z M 179.554688 159.175781 " clip-rule="nonzero"/></clipPath><clipPath id="d4ba676dfc"><path d="M 179.554688 159.175781 L 141.429688 229.585938 L 66.671875 189.109375 L 104.800781 118.699219 Z M 179.554688 159.175781 " clip-rule="nonzero"/></clipPath><clipPath id="c80151c75e"><path d="M 109 155 L 144 155 L 144 194 L 109 194 Z M 109 155 " clip-rule="nonzero"/></clipPath><clipPath id="a7147ac0d5"><path d="M 179.554688 159.175781 L 141.429688 229.585938 L 66.671875 189.109375 L 104.800781 118.699219 Z M 179.554688 159.175781 " clip-rule="nonzero"/></clipPath><clipPath id="d8535d96b7"><path d="M 179.554688 159.175781 L 141.429688 229.585938 L 66.671875 189.109375 L 104.800781 118.699219 Z M 179.554688 159.175781 " clip-rule="nonzero"/></clipPath><clipPath id="96dbf83b6f"><path d="M 101 168 L 120 168 L 120 187 L 101 187 Z M 101 168 " clip-rule="nonzero"/></clipPath><clipPath id="a0d7e3af81"><path d="M 179.554688 159.175781 L 141.429688 229.585938 L 66.671875 189.109375 L 104.800781 118.699219 Z M 179.554688 159.175781 " clip-rule="nonzero"/></clipPath><clipPath id="7df0af5f47"><path d="M 179.554688 159.175781 L 141.429688 229.585938 L 66.671875 189.109375 L 104.800781 118.699219 Z M 179.554688 159.175781 " clip-rule="nonzero"/></clipPath><clipPath id="7107c824e2"><path d="M 24 194 L 69 194 L 69 227 L 24 227 Z M 24 194 " clip-rule="nonzero"/></clipPath><clipPath id="4c80fdb5eb"><path d="M 54.769531 271.191406 L 17.597656 200.269531 L 92.898438 160.808594 L 130.066406 231.726562 Z M 54.769531 271.191406 " clip-rule="nonzero"/></clipPath><clipPath id="33130aa820"><path d="M 54.769531 271.191406 L 17.597656 200.269531 L 92.898438 160.808594 L 130.066406 231.726562 Z M 54.769531 271.191406 " clip-rule="nonzero"/></clipPath><clipPath id="b8d9350705"><path d="M 79 204 L 124 204 L 124 239 L 79 239 Z M 79 204 " clip-rule="nonzero"/></clipPath><clipPath id="bb60633713"><path d="M 54.769531 271.191406 L 17.597656 200.269531 L 92.898438 160.808594 L 130.066406 231.726562 Z M 54.769531 271.191406 " clip-rule="nonzero"/></clipPath><clipPath id="f281b7f285"><path d="M 54.769531 271.191406 L 17.597656 200.269531 L 92.898438 160.808594 L 130.066406 231.726562 Z M 54.769531 271.191406 " clip-rule="nonzero"/></clipPath><clipPath id="57763e35f3"><path d="M 51 210 L 97 210 L 97 231 L 51 231 Z M 51 210 " clip-rule="nonzero"/></clipPath><clipPath id="317d64341b"><path d="M 54.769531 271.191406 L 17.597656 200.269531 L 92.898438 160.808594 L 130.066406 231.726562 Z M 54.769531 271.191406 " clip-rule="nonzero"/></clipPath><clipPath id="7daf54fc9a"><path d="M 54.769531 271.191406 L 17.597656 200.269531 L 92.898438 160.808594 L 130.066406 231.726562 Z M 54.769531 271.191406 " clip-rule="nonzero"/></clipPath><clipPath id="c9f5cb9fe1"><path d="M 66 199 L 91 199 L 91 210 L 66 210 Z M 66 199 " clip-rule="nonzero"/></clipPath><clipPath id="787e1b50d5"><path d="M 54.769531 271.191406 L 17.597656 200.269531 L 92.898438 160.808594 L 130.066406 231.726562 Z M 54.769531 271.191406 " clip-rule="nonzero"/></clipPath><clipPath id="fbc435c99d"><path d="M 54.769531 271.191406 L 17.597656 200.269531 L 92.898438 160.808594 L 130.066406 231.726562 Z M 54.769531 271.191406 " clip-rule="nonzero"/></clipPath></defs><g fill="#03b6ae" fill-opacity="1"><g transform="translate(167.172666, 166.075951)"><g><path d="M 7.703125 0 C 6.867188 0 6.164062 -0.328125 5.59375 -0.984375 C 5.03125 -1.648438 4.75 -2.488281 4.75 -3.5 L 4.75 -34.328125 C 4.75 -38.453125 6.019531 -41.445312 8.5625 -43.3125 C 11.113281 -45.1875 15.222656 -46.125 20.890625 -46.125 L 29.125 -46.125 C 30.570312 -46.125 31.703125 -45.738281 32.515625 -44.96875 C 33.328125 -44.195312 33.734375 -43.109375 33.734375 -41.703125 C 33.734375 -40.347656 33.328125 -39.296875 32.515625 -38.546875 C 31.703125 -37.796875 30.570312 -37.421875 29.125 -37.421875 L 20.421875 -37.421875 C 18.222656 -37.421875 16.640625 -36.984375 15.671875 -36.109375 C 14.710938 -35.234375 14.234375 -33.804688 14.234375 -31.828125 C 14.234375 -31.117188 14.1875 -30.25 14.09375 -29.21875 C 14.007812 -28.1875 13.878906 -27.015625 13.703125 -25.703125 C 14.453125 -26.316406 15.394531 -26.804688 16.53125 -27.171875 C 17.675781 -27.546875 18.800781 -27.734375 19.90625 -27.734375 L 26.421875 -27.734375 C 27.648438 -27.734375 28.601562 -27.359375 29.28125 -26.609375 C 29.96875 -25.867188 30.3125 -24.835938 30.3125 -23.515625 C 30.3125 -22.203125 29.957031 -21.148438 29.25 -20.359375 C 28.550781 -19.566406 27.609375 -19.171875 26.421875 -19.171875 L 19.375 -19.171875 C 17.351562 -19.171875 15.988281 -18.765625 15.28125 -17.953125 C 14.582031 -17.140625 14.234375 -15.503906 14.234375 -13.046875 L 14.234375 -8.703125 L 29.125 -8.703125 C 30.75 -8.703125 31.921875 -8.347656 32.640625 -7.640625 C 33.367188 -6.941406 33.734375 -5.800781 33.734375 -4.21875 C 33.734375 -2.726562 33.378906 -1.648438 32.671875 -0.984375 C 31.972656 -0.328125 30.789062 0 29.125 0 Z M 7.703125 0 "/></g></g></g><g fill="#03b6ae" fill-opacity="1"><g transform="translate(203.017169, 166.075951)"><g><path d="M 13.046875 -22.859375 C 13.046875 -17.628906 13.679688 -13.882812 14.953125 -11.625 C 16.234375 -9.363281 18.125 -8.234375 20.625 -8.234375 C 22.207031 -8.234375 23.585938 -8.351562 24.765625 -8.59375 C 25.953125 -8.84375 27.03125 -8.96875 28 -8.96875 C 29.757812 -8.96875 31.035156 -8.601562 31.828125 -7.875 C 32.617188 -7.144531 33.015625 -6.210938 33.015625 -5.078125 C 33.015625 -3.578125 32.472656 -2.429688 31.390625 -1.640625 C 30.316406 -0.859375 28.957031 -0.3125 27.3125 0 C 25.664062 0.3125 23.984375 0.46875 22.265625 0.46875 C 17.523438 0.46875 13.757812 -0.410156 10.96875 -2.171875 C 8.175781 -3.929688 6.175781 -6.535156 4.96875 -9.984375 C 3.757812 -13.429688 3.15625 -17.722656 3.15625 -22.859375 C 3.15625 -28.003906 3.757812 -32.363281 4.96875 -35.9375 C 6.175781 -39.519531 8.175781 -42.234375 10.96875 -44.078125 C 13.757812 -45.921875 17.523438 -46.84375 22.265625 -46.84375 C 23.984375 -46.84375 25.664062 -46.6875 27.3125 -46.375 C 28.957031 -46.070312 30.316406 -45.523438 31.390625 -44.734375 C 32.472656 -43.941406 33.015625 -42.800781 33.015625 -41.3125 C 33.015625 -40.21875 32.617188 -39.296875 31.828125 -38.546875 C 31.035156 -37.796875 29.757812 -37.421875 28 -37.421875 C 27.03125 -37.421875 25.953125 -37.539062 24.765625 -37.78125 C 23.585938 -38.03125 22.207031 -38.15625 20.625 -38.15625 C 17.550781 -38.15625 15.519531 -36.910156 14.53125 -34.421875 C 13.539062 -31.941406 13.046875 -28.085938 13.046875 -22.859375 Z M 13.046875 -22.859375 "/></g></g></g><g fill="#03b6ae" fill-opacity="1"><g transform="translate(238.136864, 166.075951)"><g><path d="M 21.078125 0.53125 C 17.265625 0.53125 14.015625 -0.222656 11.328125 -1.734375 C 8.648438 -3.253906 6.617188 -5.75 5.234375 -9.21875 C 3.847656 -12.695312 3.15625 -17.398438 3.15625 -23.328125 C 3.15625 -29.253906 3.847656 -33.929688 5.234375 -37.359375 C 6.617188 -40.785156 8.648438 -43.222656 11.328125 -44.671875 C 14.015625 -46.117188 17.265625 -46.84375 21.078125 -46.84375 C 24.953125 -46.84375 28.21875 -46.117188 30.875 -44.671875 C 33.53125 -43.222656 35.546875 -40.785156 36.921875 -37.359375 C 38.304688 -33.929688 39 -29.253906 39 -23.328125 C 39 -17.398438 38.304688 -12.695312 36.921875 -9.21875 C 35.546875 -5.75 33.53125 -3.253906 30.875 -1.734375 C 28.21875 -0.222656 24.953125 0.53125 21.078125 0.53125 Z M 21.078125 -8.171875 C 22.835938 -8.171875 24.34375 -8.585938 25.59375 -9.421875 C 26.84375 -10.253906 27.804688 -11.769531 28.484375 -13.96875 C 29.171875 -16.164062 29.515625 -19.285156 29.515625 -23.328125 C 29.515625 -27.410156 29.171875 -30.515625 28.484375 -32.640625 C 27.804688 -34.773438 26.84375 -36.226562 25.59375 -37 C 24.34375 -37.769531 22.835938 -38.15625 21.078125 -38.15625 C 19.367188 -38.15625 17.875 -37.769531 16.59375 -37 C 15.320312 -36.226562 14.347656 -34.773438 13.671875 -32.640625 C 12.992188 -30.515625 12.65625 -27.410156 12.65625 -23.328125 C 12.65625 -19.285156 12.992188 -16.164062 13.671875 -13.96875 C 14.347656 -11.769531 15.320312 -10.253906 16.59375 -9.421875 C 17.875 -8.585938 19.367188 -8.171875 21.078125 -8.171875 Z M 21.078125 -8.171875 "/></g></g></g><g fill="#03b6ae" fill-opacity="1"><g transform="translate(280.310976, 166.075951)"><g/></g></g><g fill="#03b6ae" fill-opacity="1"><g transform="translate(167.172666, 237.248829)"><g><path d="M 13.046875 -22.859375 C 13.046875 -17.628906 13.679688 -13.882812 14.953125 -11.625 C 16.234375 -9.363281 18.125 -8.234375 20.625 -8.234375 C 22.207031 -8.234375 23.585938 -8.351562 24.765625 -8.59375 C 25.953125 -8.84375 27.03125 -8.96875 28 -8.96875 C 29.757812 -8.96875 31.035156 -8.601562 31.828125 -7.875 C 32.617188 -7.144531 33.015625 -6.210938 33.015625 -5.078125 C 33.015625 -3.578125 32.472656 -2.429688 31.390625 -1.640625 C 30.316406 -0.859375 28.957031 -0.3125 27.3125 0 C 25.664062 0.3125 23.984375 0.46875 22.265625 0.46875 C 17.523438 0.46875 13.757812 -0.410156 10.96875 -2.171875 C 8.175781 -3.929688 6.175781 -6.535156 4.96875 -9.984375 C 3.757812 -13.429688 3.15625 -17.722656 3.15625 -22.859375 C 3.15625 -28.003906 3.757812 -32.363281 4.96875 -35.9375 C 6.175781 -39.519531 8.175781 -42.234375 10.96875 -44.078125 C 13.757812 -45.921875 17.523438 -46.84375 22.265625 -46.84375 C 23.984375 -46.84375 25.664062 -46.6875 27.3125 -46.375 C 28.957031 -46.070312 30.316406 -45.523438 31.390625 -44.734375 C 32.472656 -43.941406 33.015625 -42.800781 33.015625 -41.3125 C 33.015625 -40.21875 32.617188 -39.296875 31.828125 -38.546875 C 31.035156 -37.796875 29.757812 -37.421875 28 -37.421875 C 27.03125 -37.421875 25.953125 -37.539062 24.765625 -37.78125 C 23.585938 -38.03125 22.207031 -38.15625 20.625 -38.15625 C 17.550781 -38.15625 15.519531 -36.910156 14.53125 -34.421875 C 13.539062 -31.941406 13.046875 -28.085938 13.046875 -22.859375 Z M 13.046875 -22.859375 "/></g></g></g><g fill="#03b6ae" fill-opacity="1"><g transform="translate(202.292361, 237.248829)"><g><path d="M 9.625 0.53125 C 6.375 0.53125 4.75 -0.941406 4.75 -3.890625 L 4.75 -42.4375 C 4.75 -43.96875 5.117188 -45.082031 5.859375 -45.78125 C 6.609375 -46.488281 7.796875 -46.84375 9.421875 -46.84375 C 12.628906 -46.84375 14.234375 -45.375 14.234375 -42.4375 L 14.234375 -35.84375 C 14.234375 -30.394531 14.078125 -27.144531 13.765625 -26.09375 C 14.910156 -27.238281 16.140625 -28.03125 17.453125 -28.46875 C 18.773438 -28.90625 20.515625 -29.125 22.671875 -29.125 L 29.125 -29.125 L 29.125 -42.4375 C 29.125 -43.96875 29.492188 -45.082031 30.234375 -45.78125 C 30.984375 -46.488281 32.171875 -46.84375 33.796875 -46.84375 C 37.003906 -46.84375 38.609375 -45.375 38.609375 -42.4375 L 38.609375 -3.890625 C 38.609375 -2.390625 38.242188 -1.273438 37.515625 -0.546875 C 36.796875 0.171875 35.625 0.53125 34 0.53125 C 30.75 0.53125 29.125 -0.941406 29.125 -3.890625 L 29.125 -23.390625 C 28.863281 -22.597656 28.003906 -21.945312 26.546875 -21.4375 C 25.097656 -20.9375 23.410156 -20.6875 21.484375 -20.6875 C 18.710938 -20.6875 16.8125 -20.125 15.78125 -19 C 14.75 -17.882812 14.234375 -15.832031 14.234375 -12.84375 L 14.234375 -3.890625 C 14.234375 -2.390625 13.867188 -1.273438 13.140625 -0.546875 C 12.421875 0.171875 11.25 0.53125 9.625 0.53125 Z M 9.625 0.53125 "/></g></g></g><g fill="#03b6ae" fill-opacity="1"><g transform="translate(245.648386, 237.248829)"><g><path d="M 13.90625 -3.890625 C 13.90625 -0.941406 12.367188 0.53125 9.296875 0.53125 C 7.796875 0.53125 6.609375 0.15625 5.734375 -0.59375 C 4.859375 -1.34375 4.421875 -2.441406 4.421875 -3.890625 L 4.421875 -29.984375 C 4.421875 -36.046875 5.648438 -40.367188 8.109375 -42.953125 C 10.566406 -45.546875 14.410156 -46.84375 19.640625 -46.84375 C 24.992188 -46.84375 28.941406 -45.523438 31.484375 -42.890625 C 34.035156 -40.253906 35.3125 -35.953125 35.3125 -29.984375 L 35.3125 -3.890625 C 35.3125 -0.941406 33.773438 0.53125 30.703125 0.53125 C 29.210938 0.53125 28.023438 0.15625 27.140625 -0.59375 C 26.265625 -1.34375 25.828125 -2.441406 25.828125 -3.890625 L 25.828125 -19.765625 C 24.992188 -19.015625 24.082031 -18.375 23.09375 -17.84375 C 22.101562 -17.320312 20.953125 -17.0625 19.640625 -17.0625 C 17.703125 -17.0625 16.257812 -16.707031 15.3125 -16 C 14.375 -15.300781 13.90625 -14.050781 13.90625 -12.25 Z M 13.5 -23.1875 C 14.207031 -23.894531 15.054688 -24.445312 16.046875 -24.84375 C 17.035156 -25.238281 18.234375 -25.4375 19.640625 -25.4375 C 21.304688 -25.4375 22.585938 -25.566406 23.484375 -25.828125 C 24.390625 -26.085938 25.015625 -26.59375 25.359375 -27.34375 C 25.710938 -28.09375 25.890625 -29.191406 25.890625 -30.640625 C 25.890625 -33.890625 25.425781 -36.117188 24.5 -37.328125 C 23.582031 -38.535156 21.9375 -39.140625 19.5625 -39.140625 C 17.375 -39.140625 15.875 -38.515625 15.0625 -37.265625 C 14.25 -36.015625 13.84375 -33.71875 13.84375 -30.375 C 13.84375 -28.664062 13.816406 -27.21875 13.765625 -26.03125 C 13.722656 -24.84375 13.632812 -23.894531 13.5 -23.1875 Z M 13.5 -23.1875 "/></g></g></g><g fill="#03b6ae" fill-opacity="1"><g transform="translate(285.380435, 237.248829)"><g><path d="M 9.625 0.53125 C 6.375 0.53125 4.75 -0.941406 4.75 -3.890625 L 4.75 -42.4375 C 4.75 -43.96875 5.117188 -45.082031 5.859375 -45.78125 C 6.609375 -46.488281 7.796875 -46.84375 9.421875 -46.84375 C 12.628906 -46.84375 14.234375 -45.375 14.234375 -42.4375 L 14.234375 -3.890625 C 14.234375 -2.390625 13.867188 -1.273438 13.140625 -0.546875 C 12.421875 0.171875 11.25 0.53125 9.625 0.53125 Z M 9.625 0.53125 "/></g></g></g><g fill="#03b6ae" fill-opacity="1"><g transform="translate(304.35694, 237.248829)"><g><path d="M 13.90625 -3.890625 C 13.90625 -0.941406 12.367188 0.53125 9.296875 0.53125 C 7.796875 0.53125 6.609375 0.15625 5.734375 -0.59375 C 4.859375 -1.34375 4.421875 -2.441406 4.421875 -3.890625 L 4.421875 -29.78125 C 4.421875 -33.90625 4.96875 -37.207031 6.0625 -39.6875 C 7.15625 -42.175781 8.953125 -43.988281 11.453125 -45.125 C 13.960938 -46.269531 17.304688 -46.84375 21.484375 -46.84375 C 27.015625 -46.84375 31.195312 -45.554688 34.03125 -42.984375 C 36.863281 -40.421875 38.28125 -36.019531 38.28125 -29.78125 L 38.28125 -3.890625 C 38.28125 -0.941406 36.742188 0.53125 33.671875 0.53125 C 32.179688 0.53125 30.992188 0.15625 30.109375 -0.59375 C 29.234375 -1.34375 28.796875 -2.441406 28.796875 -3.890625 L 28.796875 -29.78125 C 28.796875 -33.03125 28.234375 -35.347656 27.109375 -36.734375 C 25.992188 -38.117188 24.117188 -38.8125 21.484375 -38.8125 C 19.421875 -38.8125 17.835938 -38.503906 16.734375 -37.890625 C 15.640625 -37.273438 14.894531 -36.304688 14.5 -34.984375 C 14.101562 -33.671875 13.90625 -31.9375 13.90625 -29.78125 Z M 13.90625 -3.890625 "/></g></g></g><g clip-path="url(#a5f25e10cc)"><g clip-path="url(#7ccafec078)"><g clip-path="url(#7f3095e90e)"><path fill="#03b6ae" d="M 91.351562 128.019531 C 88.269531 122.03125 80.886719 119.664062 74.894531 122.746094 L 55.453125 132.753906 C 55.339844 132.808594 55.226562 132.871094 55.113281 132.929688 C 56.355469 133.007812 57.59375 133.238281 58.808594 133.628906 C 60.058594 134.027344 61.21875 134.578125 62.273438 135.242188 L 77.335938 127.492188 C 80.710938 125.753906 84.871094 127.085938 86.609375 130.464844 C 88.347656 133.839844 87.011719 137.996094 83.640625 139.734375 L 69.3125 147.105469 L 64.195312 149.738281 C 62.84375 150.433594 61.367188 150.636719 59.964844 150.414062 C 59.214844 150.292969 58.484375 150.050781 57.8125 149.691406 C 56.617188 149.054688 55.59375 148.0625 54.925781 146.765625 C 54.484375 145.914062 54.242188 145.015625 54.175781 144.113281 C 52.511719 144.117188 50.964844 145.191406 50.425781 146.855469 L 49.878906 148.570312 C 49.972656 148.785156 50.074219 148.996094 50.179688 149.210938 C 51.519531 151.8125 53.671875 153.730469 56.171875 154.816406 C 59.417969 156.226562 63.25 156.222656 66.636719 154.484375 L 68.324219 153.613281 L 86.078125 144.476562 C 92.070312 141.394531 94.4375 134.015625 91.351562 128.019531 " fill-opacity="1" fill-rule="nonzero"/></g></g></g><g clip-path="url(#664352e9fd)"><g clip-path="url(#fce586cf04)"><g clip-path="url(#64dbeabb07)"><path fill="#03b6ae" d="M 50.46875 166.003906 C 49.382812 163.898438 47.765625 162.238281 45.863281 161.109375 L 44.15625 166.4375 C 44.785156 166.988281 45.320312 167.660156 45.722656 168.449219 C 46.421875 169.796875 46.625 171.277344 46.402344 172.671875 C 46.066406 174.761719 44.773438 176.671875 42.753906 177.71875 L 37.621094 180.359375 L 23.3125 187.722656 C 21.960938 188.417969 20.480469 188.617188 19.085938 188.394531 C 16.996094 188.0625 15.082031 186.769531 14.039062 184.746094 C 12.300781 181.375 13.636719 177.214844 17.007812 175.476562 L 32.425781 167.546875 C 32.519531 166.457031 32.738281 165.351562 33.085938 164.261719 L 34.257812 160.609375 C 34.175781 160.644531 34.09375 160.6875 34.011719 160.730469 L 14.570312 170.734375 C 8.578125 173.816406 6.214844 181.195312 9.296875 187.191406 C 12.378906 193.183594 19.761719 195.546875 25.753906 192.46875 L 43.296875 183.441406 L 45.195312 182.460938 C 50.164062 179.90625 52.640625 174.386719 51.574219 169.15625 C 51.359375 168.085938 50.992188 167.023438 50.46875 166.003906 " fill-opacity="1" fill-rule="nonzero"/></g></g></g><g clip-path="url(#1440605c69)"><g clip-path="url(#7968159d19)"><g clip-path="url(#c52799d39c)"><path fill="#03b6ae" d="M 35.390625 167.394531 C 35.375 167.527344 35.359375 167.652344 35.347656 167.78125 C 35.339844 167.871094 35.332031 167.964844 35.324219 168.054688 C 35.109375 171.253906 36.175781 174.378906 38.1875 176.765625 L 41.40625 175.109375 C 41.976562 174.816406 42.453125 174.402344 42.808594 173.902344 C 41.082031 172.28125 40.261719 169.816406 40.796875 167.398438 C 40.839844 167.203125 40.894531 167.007812 40.957031 166.808594 C 40.957031 166.800781 40.960938 166.792969 40.964844 166.785156 L 44.195312 156.699219 L 46.746094 148.726562 L 47.03125 147.835938 L 47.632812 145.964844 C 47.660156 145.871094 47.691406 145.78125 47.726562 145.695312 C 47.757812 145.609375 47.789062 145.523438 47.828125 145.4375 C 47.929688 145.183594 48.050781 144.933594 48.183594 144.695312 C 48.230469 144.617188 48.273438 144.535156 48.324219 144.460938 C 48.414062 144.308594 48.515625 144.160156 48.621094 144.015625 C 48.746094 143.839844 48.882812 143.671875 49.023438 143.511719 C 49.082031 143.445312 49.140625 143.378906 49.203125 143.316406 C 49.273438 143.242188 49.347656 143.171875 49.417969 143.101562 C 50.363281 142.195312 51.554688 141.570312 52.832031 141.3125 C 52.929688 141.292969 53.035156 141.277344 53.128906 141.261719 C 53.222656 141.246094 53.3125 141.234375 53.40625 141.222656 C 53.480469 141.21875 53.550781 141.207031 53.625 141.203125 C 53.710938 141.195312 53.792969 141.191406 53.882812 141.183594 C 53.890625 141.183594 53.894531 141.183594 53.902344 141.183594 C 53.984375 141.179688 54.066406 141.179688 54.152344 141.179688 C 54.214844 141.179688 54.28125 141.179688 54.34375 141.179688 C 54.992188 141.195312 55.644531 141.300781 56.285156 141.507812 C 56.515625 141.578125 56.730469 141.664062 56.945312 141.753906 C 59.328125 142.792969 60.871094 145.070312 61.054688 147.566406 C 61.671875 147.566406 62.289062 147.417969 62.851562 147.128906 L 66.121094 145.445312 C 65.429688 142.300781 63.5 139.492188 60.710938 137.726562 C 60.625 137.675781 60.546875 137.625 60.460938 137.578125 C 60.40625 137.539062 60.347656 137.507812 60.289062 137.472656 C 60.109375 137.367188 59.925781 137.269531 59.738281 137.175781 C 59.671875 137.144531 59.605469 137.109375 59.539062 137.078125 C 59.441406 137.03125 59.335938 136.980469 59.230469 136.933594 C 59.148438 136.894531 59.0625 136.855469 58.976562 136.820312 C 58.890625 136.785156 58.800781 136.75 58.714844 136.714844 C 58.628906 136.675781 58.542969 136.644531 58.453125 136.613281 C 58.363281 136.578125 58.277344 136.550781 58.183594 136.511719 C 58.09375 136.484375 58.003906 136.453125 57.914062 136.425781 C 57.042969 136.144531 56.160156 135.96875 55.285156 135.890625 C 55.195312 135.882812 55.105469 135.875 55.015625 135.867188 C 49.539062 135.496094 44.296875 138.878906 42.550781 144.335938 L 39.03125 155.316406 L 35.882812 165.15625 C 35.828125 165.324219 35.78125 165.492188 35.734375 165.65625 C 35.617188 166.078125 35.523438 166.503906 35.453125 166.9375 C 35.433594 167.078125 35.410156 167.222656 35.394531 167.367188 L 35.390625 167.394531 " fill-opacity="1" fill-rule="nonzero"/></g></g></g><g clip-path="url(#2ee3267ab2)"><g clip-path="url(#e425ad2585)"><g clip-path="url(#81b1c4ce30)"><path fill="#03b6ae" d="M 58.082031 158.46875 L 54.59375 169.375 C 55.167969 173.246094 54.191406 177.125 52.042969 180.234375 C 55.3125 178.925781 58 176.222656 59.15625 172.613281 L 63.664062 158.542969 C 62.015625 158.835938 60.328125 158.847656 58.675781 158.582031 C 58.476562 158.550781 58.277344 158.515625 58.082031 158.46875 " fill-opacity="1" fill-rule="nonzero"/></g></g></g><g clip-path="url(#9c01806783)"><g clip-path="url(#4b089b9e52)"><g clip-path="url(#9e42089785)"><path fill="#03b6ae" d="M 137.597656 222.78125 C 144.269531 221.855469 148.945312 215.675781 148.023438 209 L 145.019531 187.34375 C 145 187.214844 144.984375 187.085938 144.960938 186.960938 C 144.476562 188.105469 143.851562 189.199219 143.082031 190.21875 C 142.289062 191.261719 141.390625 192.175781 140.410156 192.953125 L 142.734375 209.734375 C 143.257812 213.492188 140.621094 216.976562 136.859375 217.496094 C 133.101562 218.019531 129.621094 215.382812 129.097656 211.625 L 126.886719 195.664062 L 126.097656 189.964844 C 125.890625 188.460938 126.183594 187 126.859375 185.75 C 127.222656 185.082031 127.691406 184.472656 128.253906 183.960938 C 129.25 183.039062 130.527344 182.402344 131.96875 182.203125 C 132.917969 182.070312 133.851562 182.140625 134.71875 182.375 C 135.269531 180.800781 134.769531 178.988281 133.375 177.925781 L 131.9375 176.84375 C 131.703125 176.859375 131.472656 176.886719 131.234375 176.917969 C 128.335938 177.320312 125.8125 178.714844 123.960938 180.710938 C 121.558594 183.308594 120.289062 186.925781 120.8125 190.699219 L 121.074219 192.578125 L 123.8125 212.355469 C 124.738281 219.027344 130.917969 223.707031 137.597656 222.78125 " fill-opacity="1" fill-rule="nonzero"/></g></g></g><g clip-path="url(#08874461fa)"><g clip-path="url(#91cb101050)"><g clip-path="url(#d4ba676dfc)"><path fill="#03b6ae" d="M 115.292969 171.625 C 117.640625 171.300781 119.742188 170.324219 121.4375 168.902344 L 116.976562 165.527344 C 116.25 165.9375 115.433594 166.21875 114.558594 166.339844 C 113.054688 166.550781 111.59375 166.253906 110.347656 165.582031 C 108.488281 164.574219 107.109375 162.722656 106.792969 160.464844 L 106 154.75 L 103.792969 138.808594 C 103.585938 137.304688 103.882812 135.84375 104.558594 134.597656 C 105.566406 132.738281 107.417969 131.359375 109.671875 131.046875 C 113.429688 130.523438 116.910156 133.160156 117.433594 136.917969 L 119.8125 154.089844 C 120.8125 154.542969 121.78125 155.109375 122.691406 155.804688 L 125.75 158.117188 C 125.746094 158.027344 125.734375 157.9375 125.722656 157.84375 L 122.71875 136.1875 C 121.792969 129.511719 115.613281 124.835938 108.9375 125.761719 C 102.257812 126.6875 97.585938 132.867188 98.507812 139.542969 L 101.214844 159.085938 L 101.511719 161.199219 C 102.277344 166.738281 106.664062 170.902344 111.953125 171.628906 C 113.035156 171.777344 114.15625 171.78125 115.292969 171.625 " fill-opacity="1" fill-rule="nonzero"/></g></g></g><g clip-path="url(#c80151c75e)"><g clip-path="url(#a7147ac0d5)"><g clip-path="url(#d8535d96b7)"><path fill="#03b6ae" d="M 118.972656 156.9375 C 118.855469 156.878906 118.738281 156.824219 118.625 156.773438 C 118.542969 156.734375 118.457031 156.695312 118.371094 156.660156 C 115.425781 155.394531 112.121094 155.367188 109.203125 156.476562 L 109.703125 160.0625 C 109.789062 160.695312 110.023438 161.28125 110.378906 161.785156 C 112.480469 160.691406 115.078125 160.734375 117.179688 162.039062 C 117.351562 162.144531 117.515625 162.261719 117.683594 162.382812 C 117.691406 162.386719 117.695312 162.390625 117.703125 162.398438 L 126.152344 168.789062 L 132.832031 173.835938 L 133.574219 174.398438 L 135.144531 175.585938 C 135.21875 175.640625 135.292969 175.699219 135.363281 175.761719 C 135.433594 175.820312 135.507812 175.878906 135.574219 175.945312 C 135.78125 176.125 135.976562 176.320312 136.15625 176.527344 C 136.214844 176.597656 136.277344 176.664062 136.332031 176.738281 C 136.445312 176.871094 136.550781 177.015625 136.652344 177.164062 C 136.777344 177.34375 136.890625 177.523438 136.996094 177.710938 C 137.039062 177.789062 137.082031 177.867188 137.121094 177.945312 C 137.167969 178.039062 137.210938 178.128906 137.253906 178.21875 C 137.792969 179.410156 137.988281 180.742188 137.808594 182.035156 C 137.796875 182.132812 137.777344 182.234375 137.757812 182.332031 C 137.742188 182.425781 137.722656 182.515625 137.703125 182.601562 C 137.683594 182.675781 137.667969 182.746094 137.652344 182.820312 C 137.628906 182.902344 137.605469 182.980469 137.582031 183.066406 C 137.582031 183.074219 137.578125 183.078125 137.578125 183.085938 C 137.554688 183.164062 137.527344 183.242188 137.5 183.320312 C 137.476562 183.382812 137.457031 183.445312 137.433594 183.503906 C 137.207031 184.109375 136.886719 184.691406 136.480469 185.226562 C 136.339844 185.421875 136.1875 185.597656 136.03125 185.769531 C 134.261719 187.671875 131.601562 188.375 129.1875 187.71875 C 128.980469 188.304688 128.917969 188.933594 129.003906 189.5625 L 129.507812 193.203125 C 132.707031 193.589844 135.996094 192.703125 138.582031 190.652344 C 138.660156 190.589844 138.734375 190.53125 138.808594 190.46875 C 138.863281 190.429688 138.914062 190.382812 138.964844 190.339844 C 139.121094 190.203125 139.277344 190.066406 139.425781 189.917969 C 139.480469 189.867188 139.53125 189.816406 139.585938 189.765625 C 139.664062 189.6875 139.746094 189.605469 139.824219 189.523438 C 139.886719 189.457031 139.949219 189.386719 140.015625 189.320312 C 140.078125 189.25 140.140625 189.175781 140.199219 189.105469 C 140.265625 189.039062 140.324219 188.96875 140.382812 188.894531 C 140.445312 188.820312 140.5 188.746094 140.566406 188.671875 C 140.625 188.597656 140.683594 188.523438 140.738281 188.445312 C 141.292969 187.71875 141.75 186.945312 142.113281 186.144531 C 142.152344 186.0625 142.1875 185.976562 142.222656 185.894531 C 144.386719 180.851562 142.929688 174.785156 138.363281 171.332031 L 129.164062 164.375 L 120.921875 158.144531 C 120.78125 158.039062 120.640625 157.9375 120.5 157.839844 C 120.140625 157.589844 119.769531 157.359375 119.382812 157.152344 C 119.257812 157.082031 119.128906 157.015625 119 156.953125 L 118.972656 156.9375 " fill-opacity="1" fill-rule="nonzero"/></g></g></g><g clip-path="url(#96dbf83b6f)"><g clip-path="url(#a0d7e3af81)"><g clip-path="url(#7df0af5f47)"><path fill="#03b6ae" d="M 119.878906 181.304688 L 110.75 174.402344 C 106.902344 173.660156 103.566406 171.457031 101.347656 168.398438 C 101.496094 171.917969 103.15625 175.347656 106.179688 177.636719 L 117.964844 186.546875 C 118.234375 184.894531 118.78125 183.300781 119.582031 181.828125 C 119.675781 181.652344 119.773438 181.476562 119.878906 181.304688 " fill-opacity="1" fill-rule="nonzero"/></g></g></g><g clip-path="url(#7107c824e2)"><g clip-path="url(#4c80fdb5eb)"><g clip-path="url(#33130aa820)"><path fill="#03b6ae" d="M 25.386719 200.886719 C 22.433594 206.941406 24.953125 214.269531 31.011719 217.226562 L 50.660156 226.816406 C 50.773438 226.871094 50.890625 226.929688 51.007812 226.980469 C 50.328125 225.941406 49.769531 224.808594 49.355469 223.601562 C 48.925781 222.363281 48.671875 221.105469 48.574219 219.859375 L 33.351562 212.429688 C 29.9375 210.765625 28.519531 206.636719 30.183594 203.222656 C 31.847656 199.8125 35.976562 198.390625 39.386719 200.054688 L 53.867188 207.125 L 59.035156 209.648438 C 60.402344 210.316406 61.449219 211.375 62.109375 212.632812 C 62.460938 213.304688 62.703125 214.035156 62.820312 214.789062 C 63.027344 216.128906 62.84375 217.542969 62.203125 218.851562 C 61.785156 219.714844 61.207031 220.449219 60.527344 221.039062 C 61.527344 222.371094 63.3125 222.96875 64.96875 222.402344 L 66.671875 221.816406 C 66.789062 221.613281 66.894531 221.40625 67 221.191406 C 68.285156 218.5625 68.535156 215.6875 67.910156 213.039062 C 67.09375 209.59375 64.800781 206.523438 61.378906 204.851562 L 59.671875 204.023438 L 41.726562 195.265625 C 35.671875 192.308594 28.34375 194.828125 25.386719 200.886719 " fill-opacity="1" fill-rule="nonzero"/></g></g></g><g clip-path="url(#b8d9350705)"><g clip-path="url(#bb60633713)"><g clip-path="url(#f281b7f285)"><path fill="#03b6ae" d="M 80.285156 210.914062 C 79.246094 213.042969 78.882812 215.332031 79.117188 217.53125 L 84.40625 215.710938 C 84.472656 214.878906 84.691406 214.046875 85.082031 213.253906 C 85.746094 211.886719 86.808594 210.835938 88.058594 210.179688 C 89.9375 209.199219 92.238281 209.089844 94.289062 210.082031 L 99.476562 212.613281 L 113.933594 219.675781 C 115.300781 220.34375 116.347656 221.40625 117.003906 222.65625 C 117.988281 224.53125 118.097656 226.835938 117.101562 228.882812 C 115.4375 232.292969 111.308594 233.710938 107.894531 232.050781 L 92.320312 224.445312 C 91.386719 225.023438 90.371094 225.507812 89.289062 225.878906 L 85.664062 227.128906 C 85.738281 227.171875 85.824219 227.214844 85.90625 227.253906 L 105.554688 236.84375 C 111.609375 239.800781 118.9375 237.277344 121.898438 231.222656 C 124.855469 225.164062 122.332031 217.835938 116.273438 214.878906 L 98.546875 206.222656 L 96.625 205.289062 C 91.601562 202.835938 85.699219 204.15625 82.148438 208.136719 C 81.421875 208.953125 80.789062 209.882812 80.285156 210.914062 " fill-opacity="1" fill-rule="nonzero"/></g></g></g><g clip-path="url(#57763e35f3)"><g clip-path="url(#317d64341b)"><g clip-path="url(#7daf54fc9a)"><path fill="#03b6ae" d="M 90.421875 222.160156 C 90.535156 222.09375 90.644531 222.027344 90.753906 221.964844 C 90.832031 221.917969 90.914062 221.867188 90.988281 221.816406 C 93.683594 220.078125 95.546875 217.351562 96.257812 214.308594 L 93.003906 212.722656 C 92.425781 212.441406 91.808594 212.308594 91.195312 212.324219 C 90.929688 214.675781 89.445312 216.808594 87.191406 217.828125 C 87.007812 217.910156 86.816406 217.984375 86.621094 218.050781 C 86.613281 218.054688 86.609375 218.058594 86.597656 218.058594 L 76.582031 221.507812 L 68.667969 224.234375 L 67.785156 224.535156 L 65.925781 225.175781 C 65.835938 225.210938 65.746094 225.238281 65.65625 225.261719 C 65.566406 225.289062 65.476562 225.316406 65.386719 225.335938 C 65.121094 225.40625 64.851562 225.460938 64.578125 225.492188 C 64.488281 225.503906 64.398438 225.515625 64.304688 225.523438 C 64.132812 225.539062 63.953125 225.550781 63.773438 225.550781 C 63.554688 225.554688 63.339844 225.546875 63.128906 225.53125 C 63.039062 225.519531 62.953125 225.515625 62.863281 225.5 C 62.761719 225.492188 62.664062 225.476562 62.5625 225.460938 C 61.273438 225.242188 60.058594 224.664062 59.085938 223.792969 C 59.011719 223.726562 58.9375 223.65625 58.867188 223.585938 C 58.800781 223.519531 58.734375 223.457031 58.675781 223.386719 C 58.625 223.332031 58.574219 223.28125 58.523438 223.222656 C 58.464844 223.160156 58.414062 223.097656 58.355469 223.03125 C 58.351562 223.023438 58.347656 223.019531 58.34375 223.011719 C 58.289062 222.949219 58.242188 222.886719 58.191406 222.816406 C 58.152344 222.765625 58.113281 222.710938 58.078125 222.660156 C 57.699219 222.132812 57.394531 221.546875 57.175781 220.910156 C 57.097656 220.683594 57.035156 220.460938 56.980469 220.234375 C 56.386719 217.707031 57.289062 215.101562 59.175781 213.464844 C 58.804688 212.96875 58.320312 212.5625 57.75 212.285156 L 54.445312 210.671875 C 52.339844 213.109375 51.242188 216.335938 51.5 219.628906 C 51.511719 219.726562 51.515625 219.820312 51.527344 219.917969 C 51.53125 219.984375 51.539062 220.050781 51.550781 220.117188 C 51.574219 220.324219 51.601562 220.53125 51.640625 220.738281 C 51.652344 220.808594 51.664062 220.882812 51.679688 220.953125 C 51.703125 221.0625 51.722656 221.175781 51.75 221.289062 C 51.769531 221.375 51.789062 221.46875 51.808594 221.558594 C 51.832031 221.648438 51.859375 221.742188 51.882812 221.832031 C 51.902344 221.921875 51.929688 222.011719 51.957031 222.105469 C 51.984375 222.195312 52.011719 222.28125 52.039062 222.378906 C 52.070312 222.46875 52.097656 222.558594 52.132812 222.648438 C 52.425781 223.511719 52.8125 224.324219 53.277344 225.070312 C 53.320312 225.148438 53.371094 225.226562 53.421875 225.304688 C 56.398438 229.914062 62.246094 232.089844 67.660156 230.222656 L 78.566406 226.46875 L 88.332031 223.105469 C 88.5 223.046875 88.664062 222.984375 88.824219 222.925781 C 89.230469 222.765625 89.628906 222.585938 90.015625 222.382812 C 90.144531 222.316406 90.269531 222.246094 90.398438 222.175781 L 90.421875 222.160156 " fill-opacity="1" fill-rule="nonzero"/></g></g></g><g clip-path="url(#c9f5cb9fe1)"><g clip-path="url(#787e1b50d5)"><g clip-path="url(#fbc435c99d)"><path fill="#03b6ae" d="M 69.691406 209.320312 L 80.515625 205.59375 C 83.277344 202.8125 86.964844 201.273438 90.742188 201.136719 C 87.738281 199.300781 83.964844 198.761719 80.378906 199.996094 L 66.410156 204.804688 C 67.628906 205.949219 68.648438 207.292969 69.425781 208.78125 C 69.519531 208.957031 69.609375 209.136719 69.691406 209.320312 " fill-opacity="1" fill-rule="nonzero"/></g></g></g></svg>